<svg width="294" height="232" viewBox="0 0 294 232" fill="none" xmlns="http://www.w3.org/2000/svg">
<path d="M119.054 139.969L245.054 67.9691C249.358 65.5097 254.642 65.5097 258.946 67.9691L287.011 84.0061C290.101 85.772 290.101 90.228 287.011 91.9939L161.054 163.969C156.692 166.462 154 171.101 154 176.125V224.073C154 227.605 150.184 229.82 147.118 228.067L119.054 212.031C114.692 209.538 112 204.899 112 199.875V152.125C112 147.101 114.692 142.462 119.054 139.969Z" fill="#090F11"></path>
<path d="M63.054 107.969L189.054 35.9691C193.358 33.5097 198.642 33.5097 202.946 35.9691L231.011 52.0061C234.101 53.772 234.101 58.228 231.011 59.9939L105.054 131.969C100.692 134.462 98 139.101 98 144.125V192.073C98 195.605 94.1844 197.82 91.1178 196.067L63.0541 180.031C58.692 177.538 56 172.899 56 167.875V120.125C56 115.101 58.692 110.462 63.054 107.969Z" fill="#090F11"></path>
<path d="M7.05405 75.9691L133.054 3.96911C137.358 1.50965 142.642 1.50965 146.946 3.96911L175.011 20.0061C178.101 21.772 178.101 26.228 175.011 27.9939L49.0541 99.9691C44.692 102.462 42 107.101 42 112.125V160.073C42 163.605 38.1844 165.82 35.1178 164.067L7.05405 148.031C2.692 145.538 0 140.899 0 135.875V88.1245C0 83.1005 2.692 78.4617 7.05405 75.9691Z" fill="#090F11"></path>
</svg>